# xmcd
#
# Track frame offsets:
#	150
#	15096
#	28483
#	46498
#	58157
#	75877
#	91692
#	108296
#	130937
#	146246
#	167799
#	182279
#	195115
#	217083
#	230572
#	244381
#	260310
#	278348
#	294744
#	311848
#
# Disc length: 4353 seconds
#
# Revision: 1
# Processed by: cddbd v1.5.2PL0 Copyright (c) Steve Scherf et al.
# Submitted via: audiograbber 1.83.01
#
DISCID=1310ff14
DTITLE=Various Artist - The Very Best Of Outlaw Country [CD 2)
DYEAR=1900
DGENRE=
TTITLE0=Gretchen Wilson - Here For The Party
TTITLE1=Hank Williams Jr. - All My Rowdy Friends Are Coming Over Tonght
TTITLE2=The Charlie Daniles Band - The South's Gonna Do It Again
TTITLE3=Willie Nelson - On The Road Again
TTITLE4=The Marshall Tucker Band - Fire On The Mountain
TTITLE5=The Georgia Satllites - Keep Your Hands To Yourself
TTITLE6=Waylon Jennings - Lonesome, On'ry and Mean
TTITLE7=Molly Hatchet - Flirtin' With Disaster
TTITLE8=David Allan Coe - Longhaired redneck
TTITLE9=Travis Tritt - Modern Day Bonnie and Clyde
TTITLE10=Johnny Paycheck - I'm The Only Hell (Mama Ever Raised)
TTITLE11=Jerry Reed - East Bound and Down
TTITLE12=Montgomery Gentry - Hell Yeah!
TTITLE13=Merle Haggard  - Big City
TTITLE14=The Highwaymen - Highwaymen
TTITLE15=Kris Kristofferson - If You Don't Like Hank Williams
TTITLE16=John Anderson - Seminole Wind
TTITLE17=The Charlie Daniels Band - The Devil Went Down To Georgia
TTITLE18=Johnny Cash - A Boy Named Sue
TTITLE19=George Jones - Who's Gonna Fill Their Shoes
EXTD=
EXTT0=
EXTT1=
EXTT2=
EXTT3=
EXTT4=
EXTT5=
EXTT6=
EXTT7=
EXTT8=
EXTT9=
EXTT10=
EXTT11=
EXTT12=
EXTT13=
EXTT14=
EXTT15=
EXTT16=
EXTT17=
EXTT18=
EXTT19=
PLAYORDER=
